<svg width="31" height="32" viewBox="0 0 31 32" fill="none" xmlns="http://www.w3.org/2000/svg">
<path d="M15.5 0.5C6.9375 0.5 0 7.4375 0 16C0 24.5625 6.9375 31.5 15.5 31.5C24.0625 31.5 31 24.5625 31 16C31 7.4375 24.0625 0.5 15.5 0.5ZM15.5 6.5C18.5 6.5 21 9 21 12C21 15.0625 18.5 17.5 15.5 17.5C12.4375 17.5 10 15.0625 10 12C10 9 12.4375 6.5 15.5 6.5ZM15.5 28C11.8125 28 8.5 26.375 6.3125 23.75C7.5 21.5625 9.8125 20 12.5 20C12.625 20 12.75 20.0625 12.9375 20.125C13.75 20.375 14.5625 20.5 15.5 20.5C16.375 20.5 17.25 20.375 18 20.125C18.1875 20.0625 18.3125 20 18.5 20C21.125 20 23.4375 21.5625 24.625 23.75C22.4375 26.375 19.125 28 15.5 28Z" fill="white"/>
<path d="M6.3125 23.75L4.99422 23.0344L4.50877 23.9286L5.16017 24.7103L6.3125 23.75ZM12.9375 20.125L12.4632 21.548L12.4797 21.5535L12.4964 21.5587L12.9375 20.125ZM24.625 23.75L25.7773 24.7103L26.4287 23.9286L25.9433 23.0344L24.625 23.75ZM15.5 -1C6.10907 -1 -1.5 6.60907 -1.5 16H1.5C1.5 8.26593 7.76593 2 15.5 2V-1ZM-1.5 16C-1.5 25.3909 6.10907 33 15.5 33V30C7.76593 30 1.5 23.7341 1.5 16H-1.5ZM15.5 33C24.8909 33 32.5 25.3909 32.5 16H29.5C29.5 23.7341 23.2341 30 15.5 30V33ZM32.5 16C32.5 6.60907 24.8909 -1 15.5 -1V2C23.2341 2 29.5 8.26593 29.5 16H32.5ZM15.5 8C17.6716 8 19.5 9.82843 19.5 12H22.5C22.5 8.17157 19.3284 5 15.5 5V8ZM19.5 12C19.5 14.223 17.6827 16 15.5 16V19C19.3173 19 22.5 15.902 22.5 12H19.5ZM15.5 16C13.2659 16 11.5 14.2341 11.5 12H8.5C8.5 15.8909 11.6091 19 15.5 19V16ZM11.5 12C11.5 9.81731 13.277 8 15.5 8V5C11.598 5 8.5 8.18269 8.5 12H11.5ZM15.5 26.5C12.2606 26.5 9.36923 25.075 7.46483 22.7897L5.16017 24.7103C7.63077 27.675 11.3644 29.5 15.5 29.5V26.5ZM7.63078 24.4656C8.58061 22.7159 10.4125 21.5 12.5 21.5V18.5C9.21254 18.5 6.41939 20.4091 4.99422 23.0344L7.63078 24.4656ZM12.5 21.5C12.4052 21.5 12.3303 21.488 12.2835 21.4781C12.2604 21.4732 12.2431 21.4686 12.2332 21.4658C12.2235 21.463 12.2187 21.4613 12.221 21.4621C12.2234 21.4629 12.2295 21.465 12.2422 21.4695C12.2558 21.4744 12.2698 21.4796 12.2922 21.4878C12.333 21.5027 12.3938 21.5249 12.4632 21.548L13.4118 18.702C13.3874 18.6938 13.3623 18.6848 13.323 18.6704C13.2911 18.6587 13.2302 18.6362 13.1697 18.616C13.0526 18.577 12.8068 18.5 12.5 18.5V21.5ZM12.4964 21.5587C13.456 21.8539 14.4174 22 15.5 22V19C14.7076 19 14.044 18.8961 13.3786 18.6913L12.4964 21.5587ZM15.5 22C16.5071 22 17.546 21.8575 18.4743 21.548L17.5257 18.702C16.954 18.8925 16.2429 19 15.5 19V22ZM18.4743 21.548C18.5095 21.5363 18.5412 21.5252 18.5681 21.5157C18.5815 21.511 18.5941 21.5065 18.6052 21.5025C18.6173 21.4982 18.6257 21.4952 18.6354 21.4917C18.6538 21.4851 18.665 21.4812 18.6734 21.4784C18.6813 21.4757 18.6832 21.4752 18.681 21.4758C18.6758 21.4774 18.6518 21.4843 18.6157 21.4903C18.5979 21.4933 18.5786 21.4958 18.5583 21.4975C18.5381 21.4992 18.5185 21.5 18.5 21.5V18.5C18.2236 18.5 17.9968 18.549 17.819 18.6023C17.7397 18.6261 17.669 18.6513 17.6264 18.6665C17.5753 18.6847 17.5531 18.6928 17.5257 18.702L18.4743 21.548ZM18.5 21.5C20.5176 21.5 22.3531 22.7089 23.3067 24.4656L25.9433 23.0344C24.5219 20.4161 21.7324 18.5 18.5 18.5V21.5ZM23.4727 22.7897C21.5655 25.0783 18.6726 26.5 15.5 26.5V29.5C19.5774 29.5 23.3095 27.6717 25.7773 24.7103L23.4727 22.7897Z" fill="#333333"/>
</svg>
