<svg width="25" height="25" viewBox="0 0 25 25" fill="none" xmlns="http://www.w3.org/2000/svg">
<path d="M12.5 21C13.5938 21 14.4688 20.125 14.4688 19H10.5C10.5 20.125 11.375 21 12.5 21ZM19.2188 16.3438C18.625 15.6875 17.4688 14.7188 17.4688 11.5C17.4688 9.09375 15.7812 7.15625 13.4688 6.65625V6C13.4688 5.46875 13.0312 5 12.5 5C11.9375 5 11.5 5.46875 11.5 6V6.65625C9.1875 7.15625 7.5 9.09375 7.5 11.5C7.5 14.7188 6.34375 15.6875 5.75 16.3438C5.5625 16.5312 5.46875 16.7812 5.5 17C5.5 17.5312 5.875 18 6.5 18H18.4688C19.0938 18 19.4688 17.5312 19.5 17C19.5 16.7812 19.4062 16.5312 19.2188 16.3438Z" fill="#D24636"/>
</svg>
