<svg width="32" height="32" viewBox="0 0 32 32" fill="none" xmlns="http://www.w3.org/2000/svg">
<path d="M11.7373 7.47808L21.5144 1.83337L24.7813 7.49225L11.7373 7.47808V7.47808Z" stroke="#9BC523" stroke-width="3" stroke-linecap="round" stroke-linejoin="round"/>
<path d="M1.8335 8.9167C1.8335 8.54097 1.98275 8.18064 2.24843 7.91496C2.5141 7.64929 2.87444 7.50003 3.25016 7.50003H28.7502C29.1259 7.50003 29.4862 7.64929 29.7519 7.91496C30.0176 8.18064 30.1668 8.54097 30.1668 8.9167V28.75C30.1668 29.1258 30.0176 29.4861 29.7519 29.7518C29.4862 30.0174 29.1259 30.1667 28.7502 30.1667H3.25016C2.87444 30.1667 2.5141 30.0174 2.24843 29.7518C1.98275 29.4861 1.8335 29.1258 1.8335 28.75V8.9167Z" stroke="#9BC523" stroke-width="3" stroke-linejoin="round"/>
<path d="M23.969 22.3751H30.1669V15.2917H23.969C21.9148 15.2917 20.2502 16.8777 20.2502 18.8334C20.2502 20.7891 21.9148 22.3751 23.969 22.3751Z" stroke="#9BC523" stroke-width="3" stroke-linejoin="round"/>
<path d="M30.1667 10.6875V27.6875" stroke="#9BC523" stroke-width="3" stroke-linecap="round"/>
</svg>
