<svg width="28" height="22" viewBox="0 0 28 22" fill="none" xmlns="http://www.w3.org/2000/svg">
<path d="M20.5 8C20.5 3.875 16.0938 0.5 10.75 0.5C5.35938 0.5 1 3.875 1 8C1 9.64062 1.65625 11.0938 2.78125 12.3125C2.125 13.7656 1.09375 14.8906 1.09375 14.8906C1 14.9844 0.953125 15.1719 1 15.3125C1.09375 15.4531 1.1875 15.5 1.375 15.5C3.0625 15.5 4.46875 14.9375 5.5 14.3281C7 15.0781 8.82812 15.5 10.75 15.5C16.0938 15.5 20.5 12.1719 20.5 8ZM26.2188 18.3125C27.2969 17.0938 28 15.6406 28 14C28 10.9062 25.4688 8.1875 21.9062 7.0625C21.9531 7.39062 22 7.71875 22 8C22 12.9688 16.9375 17 10.75 17C10.2344 17 9.71875 17 9.25 16.9531C10.7031 19.625 14.1719 21.5 18.25 21.5C20.1719 21.5 21.9531 21.0781 23.4531 20.3281C24.4844 20.9375 25.8906 21.5 27.625 21.5C27.7656 21.5 27.9062 21.4531 27.9531 21.3125C28 21.1719 28 20.9844 27.8594 20.8906C27.8594 20.8906 26.8281 19.7656 26.2188 18.3125Z" fill="#9BC523"/>
</svg>
