<svg width="94" height="102" viewBox="0 0 94 102" fill="none" xmlns="http://www.w3.org/2000/svg">
<path d="M63.6641 38.2578L56.3516 36.5703C55.5781 36.3594 54.7344 36.7812 54.3828 37.5547L51.0078 45.4297C50.7266 46.1328 50.9375 46.9062 51.5 47.3984L55.7891 50.9141C53.2578 56.2578 48.8281 60.7578 43.3438 63.3594L39.8281 59.0703C39.3359 58.5078 38.5625 58.2969 37.8594 58.5781L29.9844 61.9531C29.2109 62.3047 28.8594 63.1484 29 63.9219L30.6875 71.2344C30.8984 72.0078 31.5312 72.5 32.375 72.5C50.375 72.5 65 57.9453 65 39.875C65 39.1016 64.4375 38.4688 63.6641 38.2578Z" fill="#9BC523"/>
<rect x="1" y="1" width="92.5926" height="100" rx="7.40741" stroke="#D5DDE0" stroke-width="0.37037"/>
</svg>
