<svg width="28" height="24" viewBox="0 0 28 24" fill="none" xmlns="http://www.w3.org/2000/svg">
<path d="M24.75 14.1562L26.9531 4.40625C27.0938 3.70312 26.5781 3 25.8281 3H7.45312L7.03125 0.9375C6.89062 0.421875 6.42188 0 5.90625 0H1.125C0.46875 0 0 0.515625 0 1.125V1.875C0 2.53125 0.46875 3 1.125 3H4.35938L7.6875 19.125C6.89062 19.5938 6.375 20.4375 6.375 21.375C6.375 22.8281 7.54688 24 9 24C10.4062 24 11.625 22.8281 11.625 21.375C11.625 20.6719 11.2969 20.0156 10.8281 19.5H20.625C20.1562 20.0156 19.875 20.6719 19.875 21.375C19.875 22.8281 21.0469 24 22.5 24C23.9062 24 25.125 22.8281 25.125 21.375C25.125 20.3438 24.5156 19.4531 23.625 19.0312L23.8594 17.9062C24.0469 17.2031 23.4844 16.5 22.7812 16.5H10.2188L9.89062 15H23.625C24.1406 15 24.6094 14.6719 24.75 14.1562Z" fill="white"/>
<path d="M24.75 14.1562L26.1971 14.5509L26.2058 14.5191L26.2131 14.4869L24.75 14.1562ZM26.9531 4.40625L28.4162 4.73686L28.4203 4.71869L28.424 4.70042L26.9531 4.40625ZM7.45312 3L5.98355 3.30059L6.22889 4.5H7.45312V3ZM7.03125 0.9375L8.50082 0.636906L8.49113 0.589503L8.4784 0.542824L7.03125 0.9375ZM4.35938 3L5.82841 2.6968L5.5814 1.5H4.35938V3ZM7.6875 19.125L8.44803 20.4179L9.37359 19.8735L9.15654 18.8218L7.6875 19.125ZM10.8281 19.5V18H7.4373L9.71821 20.509L10.8281 19.5ZM20.625 19.5L21.7349 20.509L24.0158 18H20.625V19.5ZM23.625 19.0312L22.1565 18.7253L21.9157 19.8813L22.9829 20.3869L23.625 19.0312ZM23.8594 17.9062L22.41 17.5198L22.3994 17.5598L22.3909 17.6003L23.8594 17.9062ZM10.2188 16.5L8.7534 16.8205L9.01141 18H10.2188V16.5ZM9.89062 15V13.5H8.02703L8.42527 15.3205L9.89062 15ZM26.2131 14.4869L28.4162 4.73686L25.49 4.07564L23.2869 13.8256L26.2131 14.4869ZM28.424 4.70042C28.7342 3.1493 27.6048 1.5 25.8281 1.5V4.5C25.7083 4.5 25.5995 4.43612 25.5406 4.36036C25.4888 4.2938 25.4637 4.20491 25.4823 4.11208L28.424 4.70042ZM25.8281 1.5H7.45312V4.5H25.8281V1.5ZM8.9227 2.69941L8.50082 0.636906L5.56168 1.23809L5.98355 3.30059L8.9227 2.69941ZM8.4784 0.542824C8.19674 -0.489902 7.22916 -1.5 5.90625 -1.5V1.5C5.74891 1.5 5.66026 1.43738 5.63595 1.41664C5.61267 1.39678 5.59543 1.37371 5.5841 1.33218L8.4784 0.542824ZM5.90625 -1.5H1.125V1.5H5.90625V-1.5ZM1.125 -1.5C-0.400368 -1.5 -1.5 -0.271518 -1.5 1.125H1.5C1.5 1.20805 1.46684 1.30246 1.39233 1.37916C1.31167 1.46219 1.20592 1.5 1.125 1.5V-1.5ZM-1.5 1.125V1.875H1.5V1.125H-1.5ZM-1.5 1.875C-1.5 3.35968 -0.359677 4.5 1.125 4.5V1.5C1.16377 1.5 1.27384 1.51971 1.37707 1.62293C1.48029 1.72616 1.5 1.83623 1.5 1.875H-1.5ZM1.125 4.5H4.35938V1.5H1.125V4.5ZM2.89034 3.3032L6.21846 19.4282L9.15654 18.8218L5.82841 2.6968L2.89034 3.3032ZM6.92697 17.8321C5.70043 18.5536 4.875 19.8737 4.875 21.375H7.875C7.875 21.0013 8.08082 20.6339 8.44803 20.4179L6.92697 17.8321ZM4.875 21.375C4.875 23.6566 6.71845 25.5 9 25.5V22.5C8.3753 22.5 7.875 21.9997 7.875 21.375H4.875ZM9 25.5C11.2173 25.5 13.125 23.6739 13.125 21.375H10.125C10.125 21.9824 9.59523 22.5 9 22.5V25.5ZM13.125 21.375C13.125 20.1998 12.5822 19.1995 11.938 18.491L9.71821 20.509C10.0116 20.8317 10.125 21.144 10.125 21.375H13.125ZM10.8281 21H20.625V18H10.8281V21ZM19.5151 18.491C18.8218 19.2536 18.375 20.2611 18.375 21.375H21.375C21.375 21.0827 21.4907 20.7777 21.7349 20.509L19.5151 18.491ZM18.375 21.375C18.375 23.6566 20.2184 25.5 22.5 25.5V22.5C21.8753 22.5 21.375 21.9997 21.375 21.375H18.375ZM22.5 25.5C24.7173 25.5 26.625 23.6739 26.625 21.375H23.625C23.625 21.9824 23.0952 22.5 22.5 22.5V25.5ZM26.625 21.375C26.625 19.732 25.652 18.3316 24.2671 17.6756L22.9829 20.3869C23.3792 20.5746 23.625 20.9555 23.625 21.375H26.625ZM25.0935 19.3372L25.3278 18.2122L22.3909 17.6003L22.1565 18.7253L25.0935 19.3372ZM25.3087 18.2927C25.7552 16.6185 24.4504 15 22.7812 15V18C22.6211 18 22.518 17.9217 22.4703 17.8604C22.4191 17.7946 22.3701 17.6693 22.41 17.5198L25.3087 18.2927ZM22.7812 15H10.2188V18H22.7812V15ZM11.6841 16.1795L11.356 14.6795L8.42527 15.3205L8.7534 16.8205L11.6841 16.1795ZM9.89062 16.5H23.625V13.5H9.89062V16.5ZM23.625 16.5C24.7706 16.5 25.8666 15.7629 26.1971 14.5509L23.3029 13.7616C23.3521 13.5808 23.5107 13.5 23.625 13.5V16.5Z" fill="#333333"/>
</svg>
