<svg width="9" height="13" viewBox="0 0 9 13" fill="none" xmlns="http://www.w3.org/2000/svg">
<path d="M5.89844 5.98438L3.36719 5.23438C3.0625 5.16406 2.875 4.88281 2.875 4.57812C2.875 4.20312 3.17969 3.875 3.55469 3.875H5.10156C5.40625 3.875 5.6875 3.96875 5.92188 4.13281C6.0625 4.22656 6.25 4.20312 6.36719 4.08594L7.1875 3.28906C7.35156 3.125 7.32812 2.86719 7.14062 2.70312C6.57812 2.25781 5.85156 2.02344 5.125 2V0.875C5.125 0.6875 4.9375 0.5 4.75 0.5H4C3.78906 0.5 3.625 0.6875 3.625 0.875V2H3.55469C2.05469 2 0.859375 3.28906 1 4.8125C1.09375 5.89062 1.91406 6.78125 2.96875 7.08594L5.35938 7.78906C5.66406 7.85938 5.875 8.14062 5.875 8.44531C5.875 8.82031 5.54688 9.125 5.17188 9.125H3.625C3.34375 9.125 3.0625 9.05469 2.82812 8.89062C2.66406 8.79688 2.47656 8.82031 2.35938 8.9375L1.53906 9.73438C1.375 9.89844 1.39844 10.1562 1.58594 10.2969C2.17188 10.7656 2.875 11 3.625 11V12.125C3.625 12.3359 3.78906 12.5 4 12.5H4.75C4.9375 12.5 5.125 12.3359 5.125 12.125V11C6.20312 10.9766 7.23438 10.3438 7.58594 9.3125C8.10156 7.85938 7.25781 6.38281 5.89844 5.98438Z" fill="#9BC523"/>
</svg>
