<svg width="12" height="19" viewBox="0 0 12 19" fill="none" xmlns="http://www.w3.org/2000/svg">
<path d="M8.34766 8.47656L4.55078 7.35156C4.09375 7.24609 3.8125 6.82422 3.8125 6.36719C3.8125 5.80469 4.26953 5.3125 4.83203 5.3125H7.15234C7.60938 5.3125 8.03125 5.45312 8.38281 5.69922C8.59375 5.83984 8.875 5.80469 9.05078 5.62891L10.2812 4.43359C10.5273 4.1875 10.4922 3.80078 10.2109 3.55469C9.36719 2.88672 8.27734 2.53516 7.1875 2.5V0.8125C7.1875 0.53125 6.90625 0.25 6.625 0.25H5.5C5.18359 0.25 4.9375 0.53125 4.9375 0.8125V2.5H4.83203C2.58203 2.5 0.789062 4.43359 1 6.71875C1.14062 8.33594 2.37109 9.67188 3.95312 10.1289L7.53906 11.1836C7.99609 11.2891 8.3125 11.7109 8.3125 12.168C8.3125 12.7305 7.82031 13.1875 7.25781 13.1875H4.9375C4.51562 13.1875 4.09375 13.082 3.74219 12.8359C3.49609 12.6953 3.21484 12.7305 3.03906 12.9062L1.80859 14.1016C1.5625 14.3477 1.59766 14.7344 1.87891 14.9453C2.75781 15.6484 3.8125 16 4.9375 16V17.6875C4.9375 18.0039 5.18359 18.25 5.5 18.25H6.625C6.90625 18.25 7.1875 18.0039 7.1875 17.6875V16C8.80469 15.9648 10.3516 15.0156 10.8789 13.4688C11.6523 11.2891 10.3867 9.07422 8.34766 8.47656Z" fill="#D24636"/>
</svg>
