<svg width="110" height="76" viewBox="0 0 110 76" fill="none" xmlns="http://www.w3.org/2000/svg">
<path d="M83.375 0H8.625C3.77344 0 0 3.95312 0 8.625V60.375C0 65.2266 3.77344 69 8.625 69H83.375C88.0469 69 92 65.2266 92 60.375V8.625C92 3.95312 88.0469 0 83.375 0ZM83.375 8.625V15.9922C79.2422 19.4062 72.7734 24.4375 59.1172 35.2188C56.0625 37.5547 50.1328 43.3047 46 43.125C41.6875 43.3047 35.7578 37.5547 32.7031 35.2188C19.0469 24.4375 12.5781 19.4062 8.625 15.9922V8.625H83.375ZM8.625 60.375V27.1328C12.5781 30.3672 18.5078 35.0391 27.3125 42.0469C31.2656 45.1016 38.2734 51.9297 46 51.75C53.5469 51.9297 60.375 45.1016 64.5078 42.0469C73.3125 35.0391 79.2422 30.3672 83.375 27.1328V60.375H8.625Z" fill="#9BC523"/>
<rect x="80" y="35" width="18" height="17" fill="white"/>
<path d="M105.5 49H103.25V42.25C103.25 34.4688 96.7812 28 89 28C81.125 28 74.75 34.4688 74.75 42.25V49H72.5C69.9688 49 68 51.0625 68 53.5V71.5C68 74.0312 69.9688 76 72.5 76H105.5C107.938 76 110 74.0312 110 71.5V53.5C110 51.0625 107.938 49 105.5 49ZM95.75 49H82.25V42.25C82.25 38.5938 85.25 35.5 89 35.5C92.6562 35.5 95.75 38.5938 95.75 42.25V49Z" fill="#9BC523"/>
</svg>
