<svg width="94" height="102" viewBox="0 0 94 102" fill="none" xmlns="http://www.w3.org/2000/svg">
<path d="M64.2969 49.9297C62.6797 51.1953 60.6406 52.7422 53.4688 57.9453C52.0625 59 49.4609 61.3203 47 61.3203C44.4688 61.3203 41.9375 59 40.4609 57.9453C33.2891 52.7422 31.25 51.1953 29.6328 49.9297C29.3516 49.7188 29 49.9297 29 50.2812V64.625C29 66.5234 30.4766 68 32.375 68H61.625C63.4531 68 65 66.5234 65 64.625V50.2812C65 49.9297 64.5781 49.7188 64.2969 49.9297ZM47 59C48.6172 59.0703 50.9375 56.9609 52.1328 56.1172C61.4844 49.3672 62.1875 48.7344 64.2969 47.0469C64.7188 46.7656 65 46.2734 65 45.7109V44.375C65 42.5469 63.4531 41 61.625 41H32.375C30.4766 41 29 42.5469 29 44.375V45.7109C29 46.2734 29.2109 46.7656 29.6328 47.0469C31.7422 48.7344 32.4453 49.3672 41.7969 56.1172C42.9922 56.9609 45.3125 59.0703 47 59Z" fill="#9BC523"/>
<rect x="1" y="1" width="92.5926" height="100" rx="7.40741" stroke="#D5DDE0" stroke-width="0.37037"/>
</svg>
