<svg width="60" height="60" viewBox="0 0 60 60" fill="none" xmlns="http://www.w3.org/2000/svg">
<rect width="60" height="60" rx="14" fill="#0980ED"/>
<path d="M37.4351 16.0058L33.8373 16C29.7953 16 27.1832 18.7047 27.1832 22.8908V26.068H23.5657C23.2531 26.068 23 26.3237 23 26.6392V31.2425C23 31.558 23.2534 31.8134 23.5657 31.8134H27.1832V43.4291C27.1832 43.7445 27.4363 44 27.7489 44H32.4686C32.7812 44 33.0343 43.7442 33.0343 43.4291V31.8134H37.264C37.5766 31.8134 37.8297 31.558 37.8297 31.2425L37.8314 26.6392C37.8314 26.4877 37.7717 26.3427 37.6658 26.2355C37.5598 26.1283 37.4155 26.068 37.2654 26.068H33.0343V23.3747C33.0343 22.0802 33.34 21.423 35.0109 21.423L37.4346 21.4221C37.7469 21.4221 38 21.1664 38 20.8512V16.5768C38 16.2619 37.7472 16.0064 37.4351 16.0058Z" fill="white"/>
</svg>
