<svg width="60" height="60" viewBox="0 0 60 60" fill="none" xmlns="http://www.w3.org/2000/svg">
<rect width="60" height="60" rx="14" fill="#D24636"/>
<path d="M30.1667 27.3333V33H38.1822C37.012 36.298 33.8613 38.6667 30.1667 38.6667C25.4803 38.6667 21.6667 34.853 21.6667 30.1667C21.6667 25.4803 25.4803 21.6667 30.1667 21.6667C32.1982 21.6667 34.1532 22.3948 35.6718 23.718L39.3948 19.4453C36.8448 17.224 33.5695 16 30.1667 16C22.3552 16 16 22.3552 16 30.1667C16 37.9782 22.3552 44.3333 30.1667 44.3333C37.9782 44.3333 44.3333 37.9782 44.3333 30.1667V27.3333H30.1667Z" fill="white"/>
</svg>
