<svg width="37" height="28" viewBox="0 0 37 28" fill="none" xmlns="http://www.w3.org/2000/svg">
<path d="M18.5 7.3125L7 16.8125V27C7 27.5625 7.4375 28 8 28H15C15.5 28 15.9375 27.5625 15.9375 27V21C15.9375 20.5 16.4375 20 16.9375 20H20.9375C21.5 20 21.9375 20.5 21.9375 21V27C21.9375 27.5625 22.4375 28 22.9375 28H30C30.5 28 31 27.5625 31 27V16.75L19.4375 7.3125C19.3125 7.1875 19.125 7.125 19 7.125C18.8125 7.125 18.625 7.1875 18.5 7.3125ZM36.6875 13.75L31.5 9.4375V0.8125C31.5 0.375 31.125 0.0625 30.75 0.0625H27.25C26.8125 0.0625 26.5 0.375 26.5 0.8125V5.3125L20.875 0.6875C20.375 0.3125 19.6875 0.0625 19 0.0625C18.25 0.0625 17.5625 0.3125 17.0625 0.6875L1.25 13.75C1.0625 13.875 0.9375 14.125 0.9375 14.3125C0.9375 14.5 1.0625 14.6875 1.125 14.8125L2.75 16.75C2.875 16.9375 3.0625 17 3.3125 17C3.5 17 3.6875 16.9375 3.8125 16.8125L18.5 4.75C18.625 4.625 18.8125 4.5625 19 4.5625C19.125 4.5625 19.3125 4.625 19.4375 4.75L34.125 16.8125C34.25 16.9375 34.4375 17 34.625 17C34.875 17 35.0625 16.9375 35.1875 16.75L36.8125 14.8125C36.9375 14.6875 37 14.5 37 14.3125C37 14.125 36.875 13.875 36.6875 13.75Z" fill="white"/>
<path d="M18.5 7.3125L19.4553 8.46894L19.5103 8.42355L19.5607 8.37316L18.5 7.3125ZM7 16.8125L6.04468 15.6561L5.5 16.106V16.8125H7ZM31 16.75H32.5V16.0381L31.9485 15.5879L31 16.75ZM19.4375 7.3125L18.3768 8.37316L18.4304 8.42669L18.489 8.47456L19.4375 7.3125ZM36.6875 13.75L35.7286 14.9035L35.7895 14.9541L35.8554 14.9981L36.6875 13.75ZM31.5 9.4375H30V10.1411L30.5411 10.591L31.5 9.4375ZM26.5 5.3125L25.5473 6.47114L28 8.48777V5.3125H26.5ZM20.875 0.6875L21.8277 -0.471138L21.8018 -0.492407L21.775 -0.5125L20.875 0.6875ZM17.0625 0.6875L16.1625 -0.5125L16.1343 -0.491371L16.1072 -0.468943L17.0625 0.6875ZM1.25 13.75L2.08205 14.9981L2.14604 14.9554L2.20532 14.9064L1.25 13.75ZM1.125 14.8125L-0.216641 15.4833L-0.137708 15.6412L-0.0242873 15.7764L1.125 14.8125ZM2.75 16.75L3.99808 15.9179L3.95231 15.8493L3.89929 15.7861L2.75 16.75ZM3.8125 16.8125L2.8605 15.6533L2.80376 15.6999L2.75184 15.7518L3.8125 16.8125ZM18.5 4.75L19.452 5.90918L19.5087 5.86258L19.5607 5.81066L18.5 4.75ZM19.4375 4.75L18.3768 5.81066L18.4288 5.86258L18.4855 5.90918L19.4375 4.75ZM34.125 16.8125L35.1857 15.7518L35.1337 15.6999L35.077 15.6533L34.125 16.8125ZM35.1875 16.75L34.0382 15.7861L33.9852 15.8493L33.9394 15.9179L35.1875 16.75ZM36.8125 14.8125L35.7518 13.7518L35.7054 13.7983L35.6632 13.8486L36.8125 14.8125ZM17.5447 6.15606L6.04468 15.6561L7.95532 17.9689L19.4553 8.46894L17.5447 6.15606ZM5.5 16.8125V27H8.5V16.8125H5.5ZM5.5 27C5.5 28.3909 6.60907 29.5 8 29.5V26.5C8.11735 26.5 8.24866 26.5492 8.34972 26.6503C8.45079 26.7513 8.5 26.8826 8.5 27H5.5ZM8 29.5H15V26.5H8V29.5ZM15 29.5C16.3906 29.5 17.4375 28.3274 17.4375 27H14.4375C14.4375 26.7976 14.6094 26.5 15 26.5V29.5ZM17.4375 27V21H14.4375V27H17.4375ZM17.4375 21C17.4375 21.2378 17.3337 21.3501 17.3107 21.3732C17.2876 21.3962 17.1753 21.5 16.9375 21.5V18.5C16.1997 18.5 15.5874 18.8538 15.1893 19.2518C14.7913 19.6499 14.4375 20.2622 14.4375 21H17.4375ZM16.9375 21.5H20.9375V18.5H16.9375V21.5ZM20.9375 21.5C20.7593 21.5 20.6317 21.4195 20.5655 21.3504C20.5078 21.2902 20.4375 21.1784 20.4375 21H23.4375C23.4375 19.7324 22.388 18.5 20.9375 18.5V21.5ZM20.4375 21V27H23.4375V21H20.4375ZM20.4375 27C20.4375 28.4505 21.6699 29.5 22.9375 29.5V26.5C23.1159 26.5 23.2277 26.5703 23.2879 26.628C23.357 26.6942 23.4375 26.8218 23.4375 27H20.4375ZM22.9375 29.5H30V26.5H22.9375V29.5ZM30 29.5C31.2676 29.5 32.5 28.4505 32.5 27H29.5C29.5 26.8218 29.5805 26.6942 29.6496 26.628C29.7098 26.5703 29.8216 26.5 30 26.5V29.5ZM32.5 27V16.75H29.5V27H32.5ZM31.9485 15.5879L20.386 6.15044L18.489 8.47456L30.0515 17.9121L31.9485 15.5879ZM20.4982 6.25184C20.0735 5.82715 19.496 5.625 19 5.625V8.625C18.8381 8.625 18.7267 8.59059 18.6617 8.56459C18.5902 8.536 18.485 8.48129 18.3768 8.37316L20.4982 6.25184ZM19 5.625C18.5148 5.625 17.9093 5.78188 17.4393 6.25184L19.5607 8.37316C19.4466 8.48722 19.3285 8.54909 19.2392 8.58156C19.1499 8.61401 19.0691 8.625 19 8.625V5.625ZM37.6464 12.5965L32.4589 8.28403L30.5411 10.591L35.7286 14.9035L37.6464 12.5965ZM33 9.4375V0.8125H30V9.4375H33ZM33 0.8125C33 -0.533052 31.8715 -1.4375 30.75 -1.4375V1.5625C30.5298 1.5625 30.355 1.47668 30.2357 1.36396C30.1041 1.23966 30 1.04318 30 0.8125H33ZM30.75 -1.4375H27.25V1.5625H30.75V-1.4375ZM27.25 -1.4375C25.9841 -1.4375 25 -0.453427 25 0.8125H28C28 0.960649 27.9412 1.16447 27.7716 1.3341C27.602 1.50373 27.3981 1.5625 27.25 1.5625V-1.4375ZM25 0.8125V5.3125H28V0.8125H25ZM27.4527 4.15386L21.8277 -0.471138L19.9223 1.84614L25.5473 6.47114L27.4527 4.15386ZM21.775 -0.5125C21.0278 -1.0729 20.0273 -1.4375 19 -1.4375V1.5625C19.3477 1.5625 19.7222 1.6979 19.975 1.8875L21.775 -0.5125ZM19 -1.4375C17.9254 -1.4375 16.9221 -1.08223 16.1625 -0.5125L17.9625 1.8875C18.2029 1.70723 18.5746 1.5625 19 1.5625V-1.4375ZM16.1072 -0.468943L0.294678 12.5936L2.20532 14.9064L18.0178 1.84394L16.1072 -0.468943ZM0.41795 12.5019C0.0801998 12.7271 -0.150995 13.025 -0.297269 13.2967C-0.439839 13.5614 -0.5625 13.9144 -0.5625 14.3125H2.4375C2.4375 14.5231 2.37734 14.6573 2.34414 14.719C2.30725 14.7875 2.2323 14.8979 2.08205 14.9981L0.41795 12.5019ZM-0.5625 14.3125C-0.5625 14.7209 -0.431311 15.0448 -0.357737 15.2066C-0.316925 15.2964 -0.276293 15.3729 -0.251371 15.4192C-0.244948 15.4311 -0.238789 15.4424 -0.23395 15.4514C-0.228722 15.461 -0.225063 15.4677 -0.221708 15.474C-0.214534 15.4873 -0.214224 15.4882 -0.216641 15.4833L2.46664 14.1417C2.4486 14.1056 2.43133 14.0733 2.41971 14.0517C2.41366 14.0404 2.40762 14.0293 2.40293 14.0207C2.39785 14.0113 2.39387 14.004 2.39004 13.9969C2.37395 13.967 2.37161 13.9614 2.37336 13.9652C2.37525 13.9694 2.38944 14.0006 2.40372 14.0523C2.41808 14.1042 2.4375 14.1943 2.4375 14.3125H-0.5625ZM-0.0242873 15.7764L1.60071 17.7139L3.89929 15.7861L2.27429 13.8486L-0.0242873 15.7764ZM1.50192 17.5821C2.01553 18.3525 2.79953 18.5 3.3125 18.5V15.5C3.30058 15.5 3.40745 15.4966 3.5613 15.5607C3.74285 15.6363 3.89748 15.7671 3.99808 15.9179L1.50192 17.5821ZM3.3125 18.5C3.79772 18.5 4.4032 18.3431 4.87316 17.8732L2.75184 15.7518C2.8659 15.6378 2.98401 15.5759 3.07332 15.5434C3.16255 15.511 3.24337 15.5 3.3125 15.5V18.5ZM4.7645 17.9717L19.452 5.90918L17.548 3.59082L2.8605 15.6533L4.7645 17.9717ZM19.5607 5.81066C19.4466 5.92472 19.3285 5.98659 19.2392 6.01906C19.1499 6.05151 19.0691 6.0625 19 6.0625V3.0625C18.5148 3.0625 17.9093 3.21938 17.4393 3.68934L19.5607 5.81066ZM19 6.0625C18.8381 6.0625 18.7267 6.02809 18.6617 6.00209C18.5902 5.9735 18.485 5.91879 18.3768 5.81066L20.4982 3.68934C20.0735 3.26465 19.496 3.0625 19 3.0625V6.0625ZM18.4855 5.90918L33.173 17.9717L35.077 15.6533L20.3895 3.59082L18.4855 5.90918ZM33.0643 17.8732C33.5343 18.3431 34.1398 18.5 34.625 18.5V15.5C34.6941 15.5 34.7749 15.511 34.8642 15.5434C34.9535 15.5759 35.0716 15.6378 35.1857 15.7518L33.0643 17.8732ZM34.625 18.5C35.138 18.5 35.922 18.3525 36.4356 17.5821L33.9394 15.9179C34.04 15.7671 34.1947 15.6363 34.3762 15.5607C34.5301 15.4966 34.6369 15.5 34.625 15.5V18.5ZM36.3368 17.7139L37.9618 15.7764L35.6632 13.8486L34.0382 15.7861L36.3368 17.7139ZM37.8732 15.8732C38.3431 15.4032 38.5 14.7977 38.5 14.3125H35.5C35.5 14.2434 35.511 14.1626 35.5434 14.0733C35.5759 13.984 35.6378 13.8659 35.7518 13.7518L37.8732 15.8732ZM38.5 14.3125C38.5 13.9144 38.3773 13.5614 38.2348 13.2967C38.0885 13.025 37.8573 12.7271 37.5196 12.5019L35.8554 14.9981C35.7052 14.8979 35.6303 14.7875 35.5934 14.719C35.5602 14.6573 35.5 14.5231 35.5 14.3125H38.5Z" fill="#333333"/>
</svg>
