<svg width="15" height="11" viewBox="0 0 15 11" fill="none" xmlns="http://www.w3.org/2000/svg">
<path d="M14.25 0.25H0.75C0.328125 0.25 0 0.601562 0 1V10C0 10.4219 0.328125 10.75 0.75 10.75H14.25C14.6484 10.75 15 10.4219 15 10V1C15 0.601562 14.6484 0.25 14.25 0.25ZM4.125 7.1875V7.5625C4.125 7.67969 4.03125 7.75 3.9375 7.75H3.5625C3.44531 7.75 3.375 7.67969 3.375 7.5625V7.1875C3.09375 7.1875 2.83594 7.09375 2.625 6.92969C2.53125 6.85938 2.53125 6.71875 2.625 6.64844L2.88281 6.39062C2.95312 6.32031 3.04688 6.32031 3.11719 6.36719C3.21094 6.41406 3.32812 6.4375 3.42188 6.4375H4.07812C4.24219 6.4375 4.35938 6.32031 4.35938 6.13281C4.35938 5.99219 4.28906 5.875 4.14844 5.85156L3.09375 5.52344C2.67188 5.38281 2.36719 4.98438 2.36719 4.51562C2.36719 3.92969 2.8125 3.46094 3.35156 3.46094V3.0625C3.35156 2.96875 3.44531 2.875 3.53906 2.875H3.91406C4.03125 2.875 4.10156 2.96875 4.10156 3.0625V3.46094C4.38281 3.46094 4.64062 3.55469 4.85156 3.71875C4.94531 3.78906 4.94531 3.92969 4.85156 4L4.59375 4.25781C4.52344 4.32812 4.42969 4.32812 4.35938 4.28125C4.26562 4.23438 4.14844 4.1875 4.05469 4.1875H3.39844C3.23438 4.1875 3.11719 4.32812 3.11719 4.51562C3.11719 4.65625 3.1875 4.77344 3.32812 4.79688L4.38281 5.125C4.80469 5.24219 5.10938 5.66406 5.10938 6.13281C5.10938 6.71875 4.66406 7.1875 4.125 7.1875ZM9.75 6.8125C9.75 6.92969 9.65625 7 9.5625 7H6.9375C6.82031 7 6.75 6.92969 6.75 6.8125V6.4375C6.75 6.34375 6.82031 6.25 6.9375 6.25H9.5625C9.65625 6.25 9.75 6.34375 9.75 6.4375V6.8125ZM13.5 6.8125C13.5 6.92969 13.4062 7 13.3125 7H11.4375C11.3203 7 11.25 6.92969 11.25 6.8125V6.4375C11.25 6.34375 11.3203 6.25 11.4375 6.25H13.3125C13.4062 6.25 13.5 6.34375 13.5 6.4375V6.8125ZM13.5 4.5625C13.5 4.67969 13.4062 4.75 13.3125 4.75H6.9375C6.82031 4.75 6.75 4.67969 6.75 4.5625V4.1875C6.75 4.09375 6.82031 4 6.9375 4H13.3125C13.4062 4 13.5 4.09375 13.5 4.1875V4.5625Z" fill="#9BC523"/>
</svg>
