<svg width="29" height="32" viewBox="0 0 29 32" fill="none" xmlns="http://www.w3.org/2000/svg">
<path d="M15 32C17.1875 32 18.9375 30.25 18.9375 28H11C11 30.25 12.75 32 15 32ZM28.4375 22.6875C27.25 21.375 24.9375 19.4375 24.9375 13C24.9375 8.1875 21.5625 4.3125 16.9375 3.3125V2C16.9375 0.9375 16.0625 0 15 0C13.875 0 13 0.9375 13 2V3.3125C8.375 4.3125 5 8.1875 5 13C5 19.4375 2.6875 21.375 1.5 22.6875C1.125 23.0625 0.9375 23.5625 1 24C1 25.0625 1.75 26 3 26H26.9375C28.1875 26 28.9375 25.0625 29 24C29 23.5625 28.8125 23.0625 28.4375 22.6875Z" fill="white"/>
<path d="M18.9375 28H20.4375V26.5H18.9375V28ZM11 28V26.5H9.5V28H11ZM28.4375 22.6875L27.3252 23.6939L27.3503 23.7217L27.3768 23.7482L28.4375 22.6875ZM16.9375 3.3125H15.4375V4.52284L16.6205 4.77862L16.9375 3.3125ZM13 3.3125L13.317 4.77862L14.5 4.52284V3.3125H13ZM1.5 22.6875L2.56066 23.7482L2.58716 23.7217L2.6123 23.6939L1.5 22.6875ZM1 24H2.5V23.8934L2.48492 23.7879L1 24ZM29 24L30.4974 24.0881L30.5 24.0441V24H29ZM15 33.5C18.0313 33.5 20.4375 31.0629 20.4375 28H17.4375C17.4375 29.4371 16.3437 30.5 15 30.5V33.5ZM18.9375 26.5H11V29.5H18.9375V26.5ZM9.5 28C9.5 31.0784 11.9216 33.5 15 33.5V30.5C13.5784 30.5 12.5 29.4216 12.5 28H9.5ZM29.5498 21.6811C28.8887 20.9505 28.1955 20.3182 27.5838 19.0948C26.981 17.8892 26.4375 16.0341 26.4375 13H23.4375C23.4375 16.4034 24.0502 18.7358 24.9005 20.4364C25.742 22.1193 26.7988 23.112 27.3252 23.6939L29.5498 21.6811ZM26.4375 13C26.4375 7.43305 22.5216 2.98521 17.2545 1.84638L16.6205 4.77862C20.6034 5.63979 23.4375 8.94195 23.4375 13H26.4375ZM18.4375 3.3125V2H15.4375V3.3125H18.4375ZM18.4375 2C18.4375 0.171214 16.9517 -1.5 15 -1.5V1.5C15.0786 1.5 15.1835 1.53426 15.2837 1.63892C15.3862 1.746 15.4375 1.88094 15.4375 2H18.4375ZM15 -1.5C13.0163 -1.5 11.5 0.139648 11.5 2H14.5C14.5 1.73535 14.7337 1.5 15 1.5V-1.5ZM11.5 2V3.3125H14.5V2H11.5ZM12.683 1.84638C7.4159 2.98521 3.5 7.43305 3.5 13H6.5C6.5 8.94195 9.3341 5.63979 13.317 4.77862L12.683 1.84638ZM3.5 13C3.5 16.0341 2.95647 17.8892 2.35367 19.0948C1.74195 20.3182 1.04876 20.9505 0.387696 21.6811L2.6123 23.6939C3.13874 23.112 4.19555 22.1193 5.03695 20.4364C5.88728 18.7358 6.5 16.4034 6.5 13H3.5ZM0.43934 21.6268C-0.202397 22.2686 -0.626565 23.2206 -0.484924 24.2121L2.48492 23.7879C2.48979 23.8219 2.48804 23.8445 2.48685 23.8538C2.48566 23.8631 2.48468 23.8622 2.48843 23.8523C2.49668 23.8306 2.51831 23.7905 2.56066 23.7482L0.43934 21.6268ZM-0.5 24C-0.5 25.7962 0.829914 27.5 3 27.5V24.5C2.77318 24.5 2.67514 24.4255 2.62628 24.3733C2.56336 24.3061 2.5 24.1818 2.5 24H-0.5ZM3 27.5H26.9375V24.5H3V27.5ZM26.9375 27.5C29.1184 27.5 30.3967 25.7994 30.4974 24.0881L27.5026 23.9119C27.49 24.1253 27.411 24.2771 27.3306 24.3611C27.2672 24.4273 27.1609 24.5 26.9375 24.5V27.5ZM30.5 24C30.5 23.1655 30.155 22.2837 29.4982 21.6268L27.3768 23.7482C27.4176 23.789 27.4509 23.8397 27.4734 23.8938C27.4967 23.9503 27.5 23.9904 27.5 24H30.5Z" fill="#333333"/>
</svg>
