<svg width="36" height="24" viewBox="0 0 36 24" fill="none" xmlns="http://www.w3.org/2000/svg">
<path d="M34.5 0H5.5C4.625 0 4 0.6875 4 1.5V2H1.5C0.625 2 0 2.6875 0 3.5V20.5C0 22.4375 1.5625 24 3.5 24H33C34.625 24 36 22.6875 36 21V1.5C36 0.6875 35.3125 0 34.5 0ZM3.5 21C3.1875 21 3 20.8125 3 20.5V5H4V20.5C4 20.8125 3.75 21 3.5 21ZM18.25 20H8.75C8.3125 20 8 19.6875 8 19.25V18.75C8 18.375 8.3125 18 8.75 18H18.25C18.625 18 19 18.375 19 18.75V19.25C19 19.6875 18.625 20 18.25 20ZM31.25 20H21.75C21.3125 20 21 19.6875 21 19.25V18.75C21 18.375 21.3125 18 21.75 18H31.25C31.625 18 32 18.375 32 18.75V19.25C32 19.6875 31.625 20 31.25 20ZM18.25 14H8.75C8.3125 14 8 13.6875 8 13.25V12.75C8 12.375 8.3125 12 8.75 12H18.25C18.625 12 19 12.375 19 12.75V13.25C19 13.6875 18.625 14 18.25 14ZM31.25 14H21.75C21.3125 14 21 13.6875 21 13.25V12.75C21 12.375 21.3125 12 21.75 12H31.25C31.625 12 32 12.375 32 12.75V13.25C32 13.6875 31.625 14 31.25 14ZM31.25 8H8.75C8.3125 8 8 7.6875 8 7.25V4.75C8 4.375 8.3125 4 8.75 4H31.25C31.625 4 32 4.375 32 4.75V7.25C32 7.6875 31.625 8 31.25 8Z" fill="white"/>
<path d="M4 2V3.5H5.5V2H4ZM3 5V3.5H1.5V5H3ZM4 5H5.5V3.5H4V5ZM34.5 -1.5H5.5V1.5H34.5V-1.5ZM5.5 -1.5C3.75588 -1.5 2.5 -0.0996428 2.5 1.5H5.5C5.5 1.48991 5.50181 1.4855 5.50194 1.48517C5.50223 1.48446 5.50144 1.48674 5.49779 1.49049C5.49597 1.49236 5.49364 1.49439 5.49082 1.49633C5.48796 1.4983 5.48518 1.49977 5.48288 1.50075C5.48052 1.50175 5.47984 1.50173 5.48158 1.50138C5.48329 1.50103 5.48914 1.5 5.5 1.5V-1.5ZM2.5 1.5V2H5.5V1.5H2.5ZM4 0.5H1.5V3.5H4V0.5ZM1.5 0.5C-0.244118 0.5 -1.5 1.90036 -1.5 3.5H1.5C1.5 3.48991 1.50181 3.4855 1.50194 3.48517C1.50223 3.48446 1.50144 3.48674 1.49779 3.49049C1.49597 3.49236 1.49364 3.49439 1.49082 3.49633C1.48796 3.4983 1.48518 3.49977 1.48288 3.50075C1.48052 3.50175 1.47984 3.50173 1.48158 3.50138C1.48329 3.50103 1.48914 3.5 1.5 3.5V0.5ZM-1.5 3.5V20.5H1.5V3.5H-1.5ZM-1.5 20.5C-1.5 23.2659 0.734073 25.5 3.5 25.5V22.5C2.39093 22.5 1.5 21.6091 1.5 20.5H-1.5ZM3.5 25.5H33V22.5H3.5V25.5ZM33 25.5C35.433 25.5 37.5 23.5362 37.5 21H34.5C34.5 21.8388 33.817 22.5 33 22.5V25.5ZM37.5 21V1.5H34.5V21H37.5ZM37.5 1.5C37.5 -0.140927 36.1409 -1.5 34.5 -1.5V1.5C34.4955 1.5 34.4913 1.4995 34.4879 1.49878C34.4846 1.49808 34.4828 1.49735 34.4826 1.49727C34.4825 1.49723 34.4838 1.49778 34.4861 1.49936C34.4885 1.50095 34.4912 1.50317 34.494 1.50597C34.4968 1.50877 34.4991 1.51153 34.5006 1.51387C34.5022 1.51618 34.5028 1.51747 34.5027 1.51736C34.5027 1.51718 34.5019 1.51544 34.5012 1.51213C34.5005 1.50869 34.5 1.50448 34.5 1.5H37.5ZM3.5 19.5C3.64451 19.5 3.93619 19.5492 4.19347 19.8065C4.45075 20.0638 4.5 20.3555 4.5 20.5H1.5C1.5 20.957 1.643 21.4987 2.07215 21.9278C2.50131 22.357 3.04299 22.5 3.5 22.5V19.5ZM4.5 20.5V5H1.5V20.5H4.5ZM3 6.5H4V3.5H3V6.5ZM2.5 5V20.5H5.5V5H2.5ZM2.5 20.5C2.5 20.2275 2.62012 19.954 2.83016 19.7615C3.02079 19.5867 3.26033 19.5 3.5 19.5V22.5C4.4529 22.5 5.5 21.7611 5.5 20.5H2.5ZM18.25 18.5H8.75V21.5H18.25V18.5ZM8.75 18.5C8.89815 18.5 9.10197 18.5588 9.2716 18.7284C9.44123 18.898 9.5 19.1019 9.5 19.25H6.5C6.5 20.5159 7.48407 21.5 8.75 21.5V18.5ZM9.5 19.25V18.75H6.5V19.25H9.5ZM9.5 18.75C9.5 18.9702 9.41418 19.145 9.30146 19.2643C9.17716 19.3959 8.98068 19.5 8.75 19.5V16.5C7.40445 16.5 6.5 17.6285 6.5 18.75H9.5ZM8.75 19.5H18.25V16.5H8.75V19.5ZM18.25 19.5C17.9497 19.5 17.7749 19.3649 17.705 19.295C17.6351 19.2251 17.5 19.0503 17.5 18.75H20.5C20.5 18.0747 20.1774 17.5249 19.8263 17.1737C19.4751 16.8226 18.9253 16.5 18.25 16.5V19.5ZM17.5 18.75V19.25H20.5V18.75H17.5ZM17.5 19.25C17.5 19.0193 17.6041 18.8228 17.7357 18.6985C17.855 18.5858 18.0298 18.5 18.25 18.5V21.5C19.3715 21.5 20.5 20.5956 20.5 19.25H17.5ZM31.25 18.5H21.75V21.5H31.25V18.5ZM21.75 18.5C21.8981 18.5 22.102 18.5588 22.2716 18.7284C22.4412 18.898 22.5 19.1019 22.5 19.25H19.5C19.5 20.5159 20.4841 21.5 21.75 21.5V18.5ZM22.5 19.25V18.75H19.5V19.25H22.5ZM22.5 18.75C22.5 18.9702 22.4142 19.145 22.3015 19.2643C22.1772 19.3959 21.9807 19.5 21.75 19.5V16.5C20.4044 16.5 19.5 17.6285 19.5 18.75H22.5ZM21.75 19.5H31.25V16.5H21.75V19.5ZM31.25 19.5C30.9497 19.5 30.7749 19.3649 30.705 19.295C30.6351 19.2251 30.5 19.0503 30.5 18.75H33.5C33.5 18.0747 33.1774 17.5249 32.8263 17.1737C32.4751 16.8226 31.9253 16.5 31.25 16.5V19.5ZM30.5 18.75V19.25H33.5V18.75H30.5ZM30.5 19.25C30.5 19.0193 30.6041 18.8228 30.7357 18.6985C30.855 18.5858 31.0298 18.5 31.25 18.5V21.5C32.3715 21.5 33.5 20.5956 33.5 19.25H30.5ZM18.25 12.5H8.75V15.5H18.25V12.5ZM8.75 12.5C8.89815 12.5 9.10197 12.5588 9.2716 12.7284C9.44123 12.898 9.5 13.1019 9.5 13.25H6.5C6.5 14.5159 7.48407 15.5 8.75 15.5V12.5ZM9.5 13.25V12.75H6.5V13.25H9.5ZM9.5 12.75C9.5 12.9702 9.41418 13.145 9.30146 13.2643C9.17716 13.3959 8.98068 13.5 8.75 13.5V10.5C7.40445 10.5 6.5 11.6285 6.5 12.75H9.5ZM8.75 13.5H18.25V10.5H8.75V13.5ZM18.25 13.5C17.9497 13.5 17.7749 13.3649 17.705 13.295C17.6351 13.2251 17.5 13.0503 17.5 12.75H20.5C20.5 12.0747 20.1774 11.5249 19.8263 11.1737C19.4751 10.8226 18.9253 10.5 18.25 10.5V13.5ZM17.5 12.75V13.25H20.5V12.75H17.5ZM17.5 13.25C17.5 13.0193 17.6041 12.8228 17.7357 12.6985C17.855 12.5858 18.0298 12.5 18.25 12.5V15.5C19.3715 15.5 20.5 14.5956 20.5 13.25H17.5ZM31.25 12.5H21.75V15.5H31.25V12.5ZM21.75 12.5C21.8981 12.5 22.102 12.5588 22.2716 12.7284C22.4412 12.898 22.5 13.1019 22.5 13.25H19.5C19.5 14.5159 20.4841 15.5 21.75 15.5V12.5ZM22.5 13.25V12.75H19.5V13.25H22.5ZM22.5 12.75C22.5 12.9702 22.4142 13.145 22.3015 13.2643C22.1772 13.3959 21.9807 13.5 21.75 13.5V10.5C20.4044 10.5 19.5 11.6285 19.5 12.75H22.5ZM21.75 13.5H31.25V10.5H21.75V13.5ZM31.25 13.5C30.9497 13.5 30.7749 13.3649 30.705 13.295C30.6351 13.2251 30.5 13.0503 30.5 12.75H33.5C33.5 12.0747 33.1774 11.5249 32.8263 11.1737C32.4751 10.8226 31.9253 10.5 31.25 10.5V13.5ZM30.5 12.75V13.25H33.5V12.75H30.5ZM30.5 13.25C30.5 13.0193 30.6041 12.8228 30.7357 12.6985C30.855 12.5858 31.0298 12.5 31.25 12.5V15.5C32.3715 15.5 33.5 14.5956 33.5 13.25H30.5ZM31.25 6.5H8.75V9.5H31.25V6.5ZM8.75 6.5C8.89815 6.5 9.10197 6.55877 9.2716 6.7284C9.44123 6.89803 9.5 7.10185 9.5 7.25H6.5C6.5 8.51593 7.48407 9.5 8.75 9.5V6.5ZM9.5 7.25V4.75H6.5V7.25H9.5ZM9.5 4.75C9.5 4.97016 9.41418 5.14495 9.30146 5.26431C9.17716 5.39592 8.98068 5.5 8.75 5.5V2.5C7.40445 2.5 6.5 3.62851 6.5 4.75H9.5ZM8.75 5.5H31.25V2.5H8.75V5.5ZM31.25 5.5C30.9497 5.5 30.7749 5.36493 30.705 5.29504C30.6351 5.22514 30.5 5.05035 30.5 4.75H33.5C33.5 4.07465 33.1774 3.52486 32.8263 3.17371C32.4751 2.82257 31.9253 2.5 31.25 2.5V5.5ZM30.5 4.75V7.25H33.5V4.75H30.5ZM30.5 7.25C30.5 7.01932 30.6041 6.82284 30.7357 6.69854C30.855 6.58582 31.0298 6.5 31.25 6.5V9.5C32.3715 9.5 33.5 8.59555 33.5 7.25H30.5Z" fill="#333333"/>
</svg>
