<svg width="38" height="41" viewBox="0 0 38 41" fill="none" xmlns="http://www.w3.org/2000/svg">
<path d="M17.3889 2.48209C17.9583 2.16592 18.5988 2 19.25 2C19.9012 2 20.5417 2.16592 21.1111 2.48209L35.5148 10.4823C35.8135 10.6483 36.0623 10.8912 36.2355 11.1857C36.4087 11.4803 36.5 11.8157 36.5 12.1574V27.9412C36.4998 28.6247 36.3169 29.2958 35.9701 29.8849C35.6233 30.474 35.1254 30.9596 34.5278 31.2915L21.1111 38.7473C20.5417 39.0635 19.9012 39.2294 19.25 39.2294C18.5988 39.2294 17.9583 39.0635 17.3889 38.7473L3.97225 31.2915C3.37493 30.9598 2.87713 30.4745 2.53037 29.8857C2.18361 29.297 2.0005 28.6263 2 27.9431V12.1574C1.99999 11.8157 2.09131 11.4803 2.26453 11.1857C2.43774 10.8912 2.68654 10.6483 2.98517 10.4823L17.3908 2.48209H17.3889Z" stroke="#9BC523" stroke-width="3" stroke-linecap="round" stroke-linejoin="round"/>
<path d="M19.25 20.6138V39.7804M2 11.0304L19.25 20.6138L2 11.0304ZM19.25 20.6138L36.5 11.0304L19.25 20.6138Z" stroke="#9BC523" stroke-width="3" stroke-linejoin="round"/>
<path d="M10.625 15.8221L27.875 6.23877" stroke="#9BC523" stroke-width="3" stroke-linecap="round" stroke-linejoin="round"/>
<path d="M7.75 21.2424L13.5 24.4471" stroke="#9BC523" stroke-width="3" stroke-linecap="round" stroke-linejoin="round"/>
</svg>
