<svg width="32" height="35" viewBox="0 0 32 35" fill="none" xmlns="http://www.w3.org/2000/svg">
<path d="M0 10H4L4.3 11.5M23.5 27.5H7.5L6.7 23.5M4.3 11.5L5.7 18.5M4.3 11.5H9.975M6.7 23.5L6.2 21M6.7 23.5H11.175M5.7 18.5H25.25M5.7 18.5L6.2 21M25.25 18.5L27 11.5H21.325M25.25 18.5L24.625 21M6.2 21H24.625M24.625 21L24 23.5H19.825M15.65 11.5V23.5M15.65 11.5H21.325M15.65 11.5H9.975M15.65 23.5H19.825M15.65 23.5H11.175M19.825 23.5L21.325 11.5M9.975 11.5L11.175 23.5M5 15H26M12 30.5C12 32.1569 10.6569 33.5 9 33.5C7.34315 33.5 6 32.1569 6 30.5C6 28.8431 7.34315 27.5 9 27.5C10.6569 27.5 12 28.8431 12 30.5ZM26 30.5C26 32.1569 24.6569 33.5 23 33.5C21.3431 33.5 20 32.1569 20 30.5C20 28.8431 21.3431 27.5 23 27.5C24.6569 27.5 26 28.8431 26 30.5Z" stroke="#9BC523" stroke-width="2"/>
<path d="M24.5 0C20.3569 0 17 3.35685 17 7.5C17 11.6431 20.3569 15 24.5 15C28.6431 15 32 11.6431 32 7.5C32 3.35685 28.6431 0 24.5 0ZM27.2823 9.46573L26.6774 10.2218C26.5867 10.3427 26.4657 10.4335 26.2843 10.4335C26.1935 10.4335 26.0726 10.373 26.0121 10.3125L23.9859 8.8004C23.6835 8.58871 23.5323 8.25605 23.5323 7.8629V3.14516C23.5323 2.90323 23.744 2.66129 24.0161 2.66129H24.9839C25.2258 2.66129 25.4677 2.90323 25.4677 3.14516V7.5L27.2218 8.8004C27.3125 8.89113 27.4032 9.0121 27.4032 9.16331C27.4032 9.28427 27.3427 9.40524 27.2823 9.46573Z" fill="#9BC523"/>
</svg>
