<svg width="36" height="34" viewBox="0 0 36 34" fill="none" xmlns="http://www.w3.org/2000/svg">
<path d="M15.4888 2.05667L15.4887 2.05666L15.4867 2.06076L11.6116 9.87419L2.84419 11.1084L2.84419 11.1084L2.83895 11.1092C0.822195 11.415 0.0678439 13.8587 1.51883 15.2885L1.51881 15.2885L1.52227 15.2918L7.7805 21.3414L6.29075 29.856L6.29067 29.856L6.28925 29.8651C5.97863 31.8547 8.1332 33.3523 9.89857 32.4447L9.90028 32.4438L17.7149 28.3877L25.4685 32.4431L25.4716 32.4447C27.2369 33.3523 29.3915 31.8547 29.0809 29.8651L29.081 29.8651L29.0794 29.856L27.5897 21.3414L33.8479 15.2919L33.8513 15.2885C35.3023 13.8587 34.548 11.415 32.5312 11.1092L32.5312 11.1092L32.5264 11.1085L23.8181 9.87419L19.8836 2.06107C19.027 0.303237 16.4136 0.234035 15.4888 2.05667Z" fill="#F4BA00" stroke="#F4BA00"/>
</svg>
