<svg width="27" height="25" viewBox="0 0 27 25" fill="none" xmlns="http://www.w3.org/2000/svg">
<path d="M10.2844 12.8794L9.31449 15.1055H8.90744L7.93433 12.8794H8.38272L9.12369 14.5967L9.87101 12.8794H10.2844Z" fill="#D24636"/>
<path d="M11.1171 15.1277C10.9453 15.1277 10.7906 15.0906 10.6528 15.0164C10.515 14.9422 10.4068 14.8394 10.3284 14.708C10.2521 14.5744 10.2139 14.4239 10.2139 14.2564C10.2139 14.0889 10.2521 13.9394 10.3284 13.808C10.4068 13.6766 10.515 13.5737 10.6528 13.4995C10.7906 13.4253 10.9453 13.3882 11.1171 13.3882C11.2909 13.3882 11.4467 13.4253 11.5845 13.4995C11.7223 13.5737 11.8294 13.6766 11.9057 13.808C11.9842 13.9394 12.0234 14.0889 12.0234 14.2564C12.0234 14.4239 11.9842 14.5744 11.9057 14.708C11.8294 14.8394 11.7223 14.9422 11.5845 15.0164C11.4467 15.0906 11.2909 15.1277 11.1171 15.1277ZM11.1171 14.7875C11.2633 14.7875 11.3842 14.7387 11.4796 14.6412C11.575 14.5437 11.6227 14.4154 11.6227 14.2564C11.6227 14.0974 11.575 13.9691 11.4796 13.8716C11.3842 13.7741 11.2633 13.7253 11.1171 13.7253C10.9708 13.7253 10.8499 13.7741 10.7545 13.8716C10.6612 13.9691 10.6146 14.0974 10.6146 14.2564C10.6146 14.4154 10.6612 14.5437 10.7545 14.6412C10.8499 14.7387 10.9708 14.7875 11.1171 14.7875Z" fill="#D24636"/>
<path d="M14.0476 13.4073V15.1055H13.6692V14.8892C13.6056 14.9656 13.5261 15.0249 13.4307 15.0673C13.3353 15.1076 13.2325 15.1277 13.1222 15.1277C12.8954 15.1277 12.7162 15.0652 12.5848 14.9401C12.4555 14.8129 12.3908 14.6253 12.3908 14.3772V13.4073H12.7883V14.3232C12.7883 14.4758 12.8222 14.5903 12.8901 14.6666C12.96 14.7408 13.0586 14.7779 13.1858 14.7779C13.3279 14.7779 13.4402 14.7345 13.5229 14.6476C13.6077 14.5585 13.6501 14.4313 13.6501 14.2659V13.4073H14.0476Z" fill="#D24636"/>
<path d="M15.3472 15.1277C15.1713 15.1277 15.0133 15.0906 14.8734 15.0164C14.7335 14.9422 14.6243 14.8394 14.5458 14.708C14.4674 14.5744 14.4282 14.4239 14.4282 14.2564C14.4282 14.0889 14.4674 13.9394 14.5458 13.808C14.6243 13.6766 14.7324 13.5737 14.8702 13.4995C15.0101 13.4253 15.1691 13.3882 15.3472 13.3882C15.5147 13.3882 15.661 13.4222 15.7861 13.49C15.9133 13.5578 16.0087 13.6554 16.0723 13.7826L15.767 13.9606C15.7182 13.8822 15.6568 13.8239 15.5826 13.7857C15.5105 13.7455 15.431 13.7253 15.344 13.7253C15.1956 13.7253 15.0727 13.7741 14.9752 13.8716C14.8776 13.967 14.8289 14.0953 14.8289 14.2564C14.8289 14.4175 14.8766 14.5468 14.972 14.6444C15.0695 14.7398 15.1935 14.7875 15.344 14.7875C15.431 14.7875 15.5105 14.7684 15.5826 14.7302C15.6568 14.69 15.7182 14.6306 15.767 14.5521L16.0723 14.7302C16.0066 14.8574 15.9101 14.956 15.7829 15.026C15.6578 15.0938 15.5126 15.1277 15.3472 15.1277Z" fill="#D24636"/>
<path d="M17.364 13.3882C17.5781 13.3882 17.7498 13.4508 17.8791 13.5759C18.0085 13.7009 18.0731 13.8864 18.0731 14.1324V15.1055H17.6756V14.1833C17.6756 14.0349 17.6406 13.9235 17.5707 13.8493C17.5007 13.773 17.4011 13.7349 17.2717 13.7349C17.1254 13.7349 17.0099 13.7794 16.9251 13.8684C16.8403 13.9553 16.7979 14.0815 16.7979 14.2469V15.1055H16.4004V12.7458H16.7979V13.6045C16.8636 13.5345 16.9442 13.4815 17.0396 13.4455C17.1371 13.4073 17.2452 13.3882 17.364 13.3882Z" fill="#D24636"/>
<path d="M20.1893 14.2659C20.1893 14.2935 20.1872 14.3327 20.183 14.3836H18.8505C18.8738 14.5087 18.9342 14.6083 19.0318 14.6825C19.1314 14.7546 19.2544 14.7907 19.4007 14.7907C19.5872 14.7907 19.7409 14.7292 19.8618 14.6062L20.0748 14.8511C19.9985 14.9422 19.9021 15.0111 19.7855 15.0578C19.6689 15.1044 19.5374 15.1277 19.3911 15.1277C19.2046 15.1277 19.0403 15.0906 18.8982 15.0164C18.7562 14.9422 18.6459 14.8394 18.5675 14.708C18.4912 14.5744 18.453 14.4239 18.453 14.2564C18.453 14.091 18.4901 13.9426 18.5643 13.8112C18.6406 13.6776 18.7456 13.5737 18.8791 13.4995C19.0127 13.4253 19.1632 13.3882 19.3307 13.3882C19.4961 13.3882 19.6434 13.4253 19.7727 13.4995C19.9042 13.5716 20.0059 13.6744 20.078 13.808C20.1522 13.9394 20.1893 14.0921 20.1893 14.2659ZM19.3307 13.7062C19.2035 13.7062 19.0954 13.7444 19.0063 13.8207C18.9194 13.8949 18.8664 13.9946 18.8473 14.1197H19.8109C19.7939 13.9967 19.742 13.897 19.6551 13.8207C19.5681 13.7444 19.46 13.7062 19.3307 13.7062Z" fill="#D24636"/>
<path d="M20.9496 13.6554C21.0641 13.4773 21.2655 13.3882 21.5538 13.3882V13.7667C21.5199 13.7603 21.4892 13.7571 21.4616 13.7571C21.3068 13.7571 21.186 13.8027 21.0991 13.8939C21.0121 13.9829 20.9687 14.1122 20.9687 14.2818V15.1055H20.5712V13.4073H20.9496V13.6554Z" fill="#D24636"/>
<path fill-rule="evenodd" clip-rule="evenodd" d="M12.6855 3.72573L4.97033 5.28075C4.10948 5.45426 3.55228 6.29277 3.72578 7.15362L5.2808 14.8688C5.36412 15.2822 5.60825 15.6456 5.95948 15.879L17.3298 23.4347C18.0612 23.9207 19.0481 23.7218 19.5341 22.9904L25.6943 13.7202C26.1803 12.9888 25.9814 12.0019 25.25 11.5158L13.8797 3.96012C13.5285 3.72672 13.0989 3.64241 12.6855 3.72573ZM5.47775 6.80051L5.28449 6.83946L5.32344 7.03272C5.34736 6.99312 5.37225 6.95386 5.3981 6.91495C5.42395 6.87605 5.45051 6.8379 5.47775 6.80051ZM9.68902 5.95171C9.72862 5.97563 9.76788 6.00052 9.80679 6.02637C11.2696 6.99842 11.6674 8.97226 10.6954 10.4351C9.72332 11.8979 7.74948 12.2957 6.28668 11.3236C6.24778 11.2978 6.20963 11.2712 6.17223 11.244L6.83951 14.5547L18.2098 22.1104L24.37 12.8402L12.9997 5.28444L9.68902 5.95171ZM6.72242 7.79498C7.20844 7.06358 8.19536 6.86466 8.92676 7.35069C9.65816 7.83671 9.85708 8.82363 9.37105 9.55503C8.88503 10.2864 7.89811 10.4853 7.16671 9.99932C6.43531 9.5133 6.23639 8.52638 6.72242 7.79498Z" fill="#D24636"/>
</svg>
