<svg width="154" height="99" viewBox="0 0 154 99" fill="none" xmlns="http://www.w3.org/2000/svg">
<path fill-rule="evenodd" clip-rule="evenodd" d="M41.2609 3.21513L3.18624 41.6352C-1.06207 45.922 -1.06208 52.8723 3.18623 57.1592L41.2609 95.5792C43.3011 97.6378 46.068 98.7944 48.9532 98.7944L142.354 98.7944C148.362 98.7944 153.232 93.8797 153.232 87.8172L153.232 10.9772C153.232 4.91464 148.362 5.92371e-07 142.354 5.68383e-07L48.9532 1.95458e-07C46.068 1.83938e-07 43.3011 1.15651 41.2609 3.21513ZM11.8322 48.4348L10.8785 49.3972L11.8322 50.3596C11.8186 50.0405 11.8117 49.7197 11.8117 49.3972C11.8117 49.0747 11.8186 48.7539 11.8322 48.4348ZM32.6149 27.4636C32.9312 27.4498 33.2491 27.4429 33.5687 27.4429C45.5847 27.4429 55.3257 37.2722 55.3257 49.3972C55.3257 61.5222 45.5847 71.3515 33.5687 71.3515C33.2491 71.3515 32.9312 71.3445 32.6149 71.3308L48.9532 87.8172L142.354 87.8172L142.354 10.9772L48.9532 10.9771L32.6149 27.4636ZM22.6902 49.3972C22.6902 43.3347 27.5607 38.42 33.5687 38.42C39.5767 38.42 44.4472 43.3347 44.4472 49.3972C44.4472 55.4597 39.5767 60.3743 33.5687 60.3743C27.5607 60.3743 22.6902 55.4597 22.6902 49.3972Z" fill="#9BC523"/>
</svg>
