<svg width="60" height="60" viewBox="0 0 60 60" fill="none" xmlns="http://www.w3.org/2000/svg">
<rect width="60" height="60" rx="14" fill="#333333"/>
<path d="M39.6586 30.8569C39.6586 28.0691 40.9394 26.0348 43.4259 24.4526C41.9943 22.4182 39.8846 21.3634 37.0968 21.1373C34.3844 20.9113 31.4459 22.6443 30.391 22.6443C29.2609 22.6443 26.6991 21.2127 24.6648 21.2127C20.4454 21.288 16 24.5279 16 31.2337C16 33.1927 16.3014 35.227 17.0548 37.3367C18.0343 40.1245 21.5002 46.9056 25.1168 46.7549C27.0005 46.7549 28.3567 45.3987 30.8431 45.3987C33.2542 45.3987 34.4597 46.7549 36.5694 46.7549C40.2613 46.7549 43.4259 40.5765 44.33 37.7888C39.4325 35.453 39.6586 31.0076 39.6586 30.8569ZM35.4392 18.5002C37.4735 16.0892 37.2475 13.8288 37.2475 13C35.4392 13.1507 33.3295 14.2809 32.124 15.6371C30.7678 17.144 30.0143 19.0277 30.165 21.062C32.124 21.2127 33.9323 20.2332 35.4392 18.5002Z" fill="#FEFEFE"/>
</svg>
