<svg width="42" height="34" viewBox="0 0 42 34" fill="none" xmlns="http://www.w3.org/2000/svg">
<path d="M41.0075 16.3959L36.6012 6.11469C36.4888 5.84921 36.3007 5.6227 36.0604 5.46338C35.8202 5.30406 35.5383 5.21899 35.25 5.21875H30.8438V2.28125C30.8438 1.89171 30.689 1.51813 30.4136 1.24269C30.1381 0.967243 29.7645 0.8125 29.375 0.8125H1.46875C1.07921 0.8125 0.705631 0.967243 0.430187 1.24269C0.154743 1.51813 0 1.89171 0 2.28125V27.25C0 27.6395 0.154743 28.0131 0.430187 28.2886C0.705631 28.564 1.07921 28.7188 1.46875 28.7188H4.61187C4.9501 29.9633 5.68847 31.062 6.71306 31.8453C7.73766 32.6286 8.99154 33.053 10.2812 33.053C11.571 33.053 12.8248 32.6286 13.8494 31.8453C14.874 31.062 15.6124 29.9633 15.9506 28.7188H25.1744C25.5126 29.9633 26.251 31.062 27.2756 31.8453C28.3002 32.6286 29.554 33.053 30.8438 33.053C32.1335 33.053 33.3873 32.6286 34.4119 31.8453C35.4365 31.062 36.1749 29.9633 36.5131 28.7188H39.6562C40.0458 28.7188 40.4194 28.564 40.6948 28.2886C40.9703 28.0131 41.125 27.6395 41.125 27.25V16.9688C41.1246 16.7719 41.0847 16.5771 41.0075 16.3959ZM30.8438 8.15625H34.2806L37.4237 15.5H30.8438V8.15625ZM10.2812 30.1875C9.70027 30.1875 9.13233 30.0152 8.64926 29.6924C8.16619 29.3697 7.78969 28.9109 7.56735 28.3741C7.34502 27.8374 7.28685 27.2467 7.40019 26.6769C7.51354 26.1071 7.79331 25.5837 8.20412 25.1729C8.61494 24.7621 9.13835 24.4823 9.70817 24.3689C10.278 24.2556 10.8686 24.3138 11.4054 24.5361C11.9421 24.7584 12.4009 25.1349 12.7237 25.618C13.0465 26.1011 13.2188 26.669 13.2188 27.25C13.2188 28.0291 12.9093 28.7762 12.3584 29.3271C11.8075 29.878 11.0603 30.1875 10.2812 30.1875ZM25.1744 25.7812H15.9506C15.6124 24.5367 14.874 23.438 13.8494 22.6547C12.8248 21.8714 11.571 21.447 10.2812 21.447C8.99154 21.447 7.73766 21.8714 6.71306 22.6547C5.68847 23.438 4.9501 24.5367 4.61187 25.7812H2.9375V3.75H27.9062V22.1975C27.2374 22.5857 26.6518 23.1021 26.1831 23.717C25.7143 24.332 25.3715 25.0335 25.1744 25.7812ZM30.8438 30.1875C30.2628 30.1875 29.6948 30.0152 29.2118 29.6924C28.7287 29.3697 28.3522 28.9109 28.1299 28.3741C27.9075 27.8374 27.8493 27.2467 27.9627 26.6769C28.076 26.1071 28.3558 25.5837 28.7666 25.1729C29.1774 24.7621 29.7009 24.4823 30.2707 24.3689C30.8405 24.2556 31.4311 24.3138 31.9679 24.5361C32.5046 24.7584 32.9634 25.1349 33.2862 25.618C33.609 26.1011 33.7812 26.669 33.7812 27.25C33.7812 28.0291 33.4718 28.7762 32.9209 29.3271C32.37 29.878 31.6228 30.1875 30.8438 30.1875ZM38.1875 25.7812H36.5131C36.1883 24.5233 35.4557 23.4085 34.4299 22.6112C33.4041 21.814 32.1429 21.3792 30.8438 21.375V18.4375H38.1875V25.7812Z" fill="#9BC523"/>
</svg>
