<svg width="34" height="31" viewBox="0 0 34 31" fill="none" xmlns="http://www.w3.org/2000/svg">
<mask id="path-1-inside-1_327_1304" fill="white">
<path fill-rule="evenodd" clip-rule="evenodd" d="M17.4582 4.98112C17.0164 4.68755 16.4761 4.5815 15.9561 4.6863L6.25176 6.64224C5.16896 6.86048 4.4681 7.91517 4.68634 8.99797L6.64228 18.7023C6.74709 19.2223 7.05415 19.6793 7.49594 19.9729L21.7978 29.4766C22.7177 30.088 23.9591 29.8378 24.5704 28.9178L32.3188 17.2575C32.9302 16.3376 32.68 15.0962 31.76 14.4849L17.4582 4.98112ZM9.01441 12.5774C9.93438 13.1887 11.1757 12.9385 11.7871 12.0185C12.3984 11.0985 12.1482 9.85718 11.2282 9.24585C10.3083 8.63451 9.0669 8.88471 8.45557 9.80469C7.84424 10.7247 8.09444 11.966 9.01441 12.5774Z"/>
</mask>
<path d="M15.9561 4.6863L15.5609 2.72573L15.5609 2.72573L15.9561 4.6863ZM6.25176 6.64224L6.64692 8.60281L6.64692 8.60281L6.25176 6.64224ZM4.68634 8.99797L2.72577 9.39313L2.72577 9.39313L4.68634 8.99797ZM6.64228 18.7023L8.60286 18.3072L6.64228 18.7023ZM7.49594 19.9729L6.38903 21.6387L7.49594 19.9729ZM21.7978 29.4766L22.9047 27.8109L21.7978 29.4766ZM16.3513 6.64687L16.3513 6.64687L18.5651 3.31536C17.6815 2.72822 16.6009 2.51612 15.5609 2.72573L16.3513 6.64687ZM6.64692 8.60281L16.3513 6.64687L15.5609 2.72573L5.8566 4.68166L6.64692 8.60281ZM6.64692 8.60281L6.64692 8.60281L5.8566 4.68166C3.69101 5.11814 2.28929 7.22753 2.72577 9.39313L6.64692 8.60281ZM8.60286 18.3072L6.64692 8.60281L2.72577 9.39313L4.68171 19.0975L8.60286 18.3072ZM8.60286 18.3072L8.60286 18.3072L4.68171 19.0975C4.89131 20.1374 5.50545 21.0515 6.38903 21.6387L8.60286 18.3072ZM22.9047 27.8109L8.60286 18.3072L6.38903 21.6387L20.6908 31.1424L22.9047 27.8109ZM22.9047 27.8109L20.6908 31.1424C22.5308 32.3651 25.0135 31.8647 26.2362 30.0247L22.9047 27.8109ZM30.6531 16.1506L22.9047 27.8109L26.2362 30.0247L33.9846 18.3644L30.6531 16.1506ZM30.6531 16.1506L33.9846 18.3644C35.2072 16.5245 34.7068 14.0418 32.8669 12.8191L30.6531 16.1506ZM16.3513 6.64687L30.6531 16.1506L32.8669 12.8191L18.5651 3.31536L16.3513 6.64687ZM10.1213 10.9116L10.1213 10.9116L7.9075 14.2431C9.74744 15.4658 12.2302 14.9654 13.4528 13.1254L10.1213 10.9116ZM10.1213 10.9116L10.1213 10.9116L13.4528 13.1254C14.6755 11.2855 14.1751 8.80276 12.3352 7.58009L10.1213 10.9116ZM10.1213 10.9116L12.3352 7.58009C10.4952 6.35743 8.01248 6.85783 6.78982 8.69777L10.1213 10.9116ZM10.1213 10.9116L6.78982 8.69777C5.56715 10.5377 6.06755 13.0204 7.9075 14.2431L10.1213 10.9116Z" fill="#D24636" mask="url(#path-1-inside-1_327_1304)"/>
<path d="M15.6647 18.3517C15.3407 18.3517 15.0267 18.3057 14.7227 18.2137C14.4227 18.1217 14.1847 17.9997 14.0087 17.8477L14.2787 17.2417C14.4507 17.3777 14.6607 17.4897 14.9087 17.5777C15.1607 17.6617 15.4127 17.7037 15.6647 17.7037C15.9767 17.7037 16.2087 17.6537 16.3607 17.5537C16.5167 17.4537 16.5947 17.3217 16.5947 17.1577C16.5947 17.0377 16.5507 16.9397 16.4627 16.8637C16.3787 16.7837 16.2707 16.7217 16.1387 16.6777C16.0067 16.6337 15.8267 16.5837 15.5987 16.5277C15.2787 16.4517 15.0187 16.3757 14.8187 16.2997C14.6227 16.2237 14.4527 16.1057 14.3087 15.9457C14.1687 15.7817 14.0987 15.5617 14.0987 15.2857C14.0987 15.0537 14.1607 14.8437 14.2847 14.6557C14.4127 14.4637 14.6027 14.3117 14.8547 14.1997C15.1107 14.0877 15.4227 14.0317 15.7907 14.0317C16.0467 14.0317 16.2987 14.0637 16.5467 14.1277C16.7947 14.1917 17.0087 14.2837 17.1887 14.4037L16.9427 15.0097C16.7587 14.9017 16.5667 14.8197 16.3667 14.7637C16.1667 14.7077 15.9727 14.6797 15.7847 14.6797C15.4767 14.6797 15.2467 14.7317 15.0947 14.8357C14.9467 14.9397 14.8727 15.0777 14.8727 15.2497C14.8727 15.3697 14.9147 15.4677 14.9987 15.5437C15.0867 15.6197 15.1967 15.6797 15.3287 15.7237C15.4607 15.7677 15.6407 15.8177 15.8687 15.8737C16.1807 15.9457 16.4367 16.0217 16.6367 16.1017C16.8367 16.1777 17.0067 16.2957 17.1467 16.4557C17.2907 16.6157 17.3627 16.8317 17.3627 17.1037C17.3627 17.3357 17.2987 17.5457 17.1707 17.7337C17.0467 17.9217 16.8567 18.0717 16.6007 18.1837C16.3447 18.2957 16.0327 18.3517 15.6647 18.3517ZM19.2881 15.0517C19.7601 15.0517 20.1201 15.1657 20.3681 15.3937C20.6201 15.6177 20.7461 15.9577 20.7461 16.4137V18.2917H20.0381V17.9017C19.9461 18.0417 19.8141 18.1497 19.6421 18.2257C19.4741 18.2977 19.2701 18.3337 19.0301 18.3337C18.7901 18.3337 18.5801 18.2937 18.4001 18.2137C18.2201 18.1297 18.0801 18.0157 17.9801 17.8717C17.8841 17.7237 17.8361 17.5577 17.8361 17.3737C17.8361 17.0857 17.9421 16.8557 18.1541 16.6837C18.3701 16.5077 18.7081 16.4197 19.1681 16.4197H19.9961V16.3717C19.9961 16.1477 19.9281 15.9757 19.7921 15.8557C19.6601 15.7357 19.4621 15.6757 19.1981 15.6757C19.0181 15.6757 18.8401 15.7037 18.6641 15.7597C18.4921 15.8157 18.3461 15.8937 18.2261 15.9937L17.9321 15.4477C18.1001 15.3197 18.3021 15.2217 18.5381 15.1537C18.7741 15.0857 19.0241 15.0517 19.2881 15.0517ZM19.1861 17.7877C19.3741 17.7877 19.5401 17.7457 19.6841 17.6617C19.8321 17.5737 19.9361 17.4497 19.9961 17.2897V16.9177H19.2221C18.7901 16.9177 18.5741 17.0597 18.5741 17.3437C18.5741 17.4797 18.6281 17.5877 18.7361 17.6677C18.8441 17.7477 18.9941 17.7877 19.1861 17.7877ZM21.7087 13.8397H22.4587V18.2917H21.7087V13.8397ZM26.4551 16.7077C26.4551 16.7597 26.4511 16.8337 26.443 16.9297H23.929C23.973 17.1657 24.087 17.3537 24.271 17.4937C24.459 17.6297 24.691 17.6977 24.967 17.6977C25.319 17.6977 25.609 17.5817 25.8371 17.3497L26.2391 17.8117C26.095 17.9837 25.913 18.1137 25.693 18.2017C25.473 18.2897 25.225 18.3337 24.949 18.3337C24.597 18.3337 24.287 18.2637 24.019 18.1237C23.751 17.9837 23.543 17.7897 23.395 17.5417C23.251 17.2897 23.179 17.0057 23.179 16.6897C23.179 16.3777 23.249 16.0977 23.389 15.8497C23.533 15.5977 23.731 15.4017 23.983 15.2617C24.235 15.1217 24.519 15.0517 24.835 15.0517C25.147 15.0517 25.425 15.1217 25.669 15.2617C25.9171 15.3977 26.1091 15.5917 26.245 15.8437C26.3851 16.0917 26.4551 16.3797 26.4551 16.7077ZM24.835 15.6517C24.595 15.6517 24.391 15.7237 24.223 15.8677C24.059 16.0077 23.959 16.1957 23.923 16.4317H25.7411C25.709 16.1997 25.611 16.0117 25.447 15.8677C25.283 15.7237 25.079 15.6517 24.835 15.6517Z" fill="#D24636"/>
<path d="M19.9987 22.3537C19.6987 22.3537 19.4567 22.2477 19.2727 22.0357C19.0887 21.8237 18.9967 21.5457 18.9967 21.2017C18.9967 20.8577 19.0887 20.5797 19.2727 20.3677C19.4567 20.1557 19.6987 20.0497 19.9987 20.0497C20.2987 20.0497 20.5407 20.1557 20.7247 20.3677C20.9127 20.5757 21.0067 20.8537 21.0067 21.2017C21.0067 21.5497 20.9127 21.8297 20.7247 22.0417C20.5407 22.2497 20.2987 22.3537 19.9987 22.3537ZM22.5187 20.0917H23.1067L20.2387 24.2917H19.6507L22.5187 20.0917ZM19.9987 21.9337C20.1627 21.9337 20.2887 21.8697 20.3767 21.7417C20.4687 21.6137 20.5147 21.4337 20.5147 21.2017C20.5147 20.9697 20.4687 20.7897 20.3767 20.6617C20.2887 20.5337 20.1627 20.4697 19.9987 20.4697C19.8427 20.4697 19.7167 20.5357 19.6207 20.6677C19.5287 20.7957 19.4827 20.9737 19.4827 21.2017C19.4827 21.4297 19.5287 21.6097 19.6207 21.7417C19.7167 21.8697 19.8427 21.9337 19.9987 21.9337ZM22.7527 24.3337C22.4527 24.3337 22.2107 24.2277 22.0267 24.0157C21.8427 23.8037 21.7507 23.5257 21.7507 23.1817C21.7507 22.8377 21.8427 22.5597 22.0267 22.3477C22.2107 22.1357 22.4527 22.0297 22.7527 22.0297C23.0527 22.0297 23.2947 22.1357 23.4787 22.3477C23.6667 22.5597 23.7607 22.8377 23.7607 23.1817C23.7607 23.5257 23.6667 23.8037 23.4787 24.0157C23.2947 24.2277 23.0527 24.3337 22.7527 24.3337ZM22.7527 23.9137C22.9127 23.9137 23.0387 23.8497 23.1307 23.7217C23.2227 23.5897 23.2687 23.4097 23.2687 23.1817C23.2687 22.9537 23.2227 22.7757 23.1307 22.6477C23.0387 22.5157 22.9127 22.4497 22.7527 22.4497C22.5927 22.4497 22.4667 22.5137 22.3747 22.6417C22.2827 22.7697 22.2367 22.9497 22.2367 23.1817C22.2367 23.4137 22.2827 23.5937 22.3747 23.7217C22.4667 23.8497 22.5927 23.9137 22.7527 23.9137Z" fill="#D24636"/>
</svg>
