<svg width="35" height="33" viewBox="0 0 35 33" fill="none" xmlns="http://www.w3.org/2000/svg">
<path d="M15.2241 1.84061L15.2241 1.8406L15.2221 1.8447L11.347 9.65813L2.57954 10.8924L2.57954 10.8923L2.5743 10.8931C0.557547 11.1989 -0.196805 13.6426 1.25418 15.0724L1.25416 15.0724L1.25762 15.0758L7.51585 21.1254L6.0261 29.64L6.02602 29.64L6.0246 29.649C5.71398 31.6387 7.86856 33.1363 9.63392 32.2286L9.63564 32.2277L17.4503 28.1716L25.2038 32.227L25.2069 32.2286C26.9723 33.1363 29.1269 31.6387 28.8163 29.649L28.8163 29.649L28.8148 29.64L27.325 21.1254L33.5833 15.0758L33.5867 15.0724C35.0377 13.6426 34.2833 11.1989 32.2666 10.8931L32.2666 10.8931L32.2618 10.8924L23.5535 9.65813L19.619 1.84501C18.7624 0.0871722 16.1489 0.017971 15.2241 1.84061Z" stroke="#F4BA00"/>
</svg>
